<svg width="140" height="49" viewBox="0 0 140 49" fill="none" xmlns="http://www.w3.org/2000/svg">
<path d="M111.334 5.1448L122.968 3.05504V48.1092H111.334V5.1448ZM128.317 5.1448V48.0843H139.951V3.05504L128.317 5.1448ZM94.7956 48.0843H106.429V15.1458H94.7956V48.0843ZM17.9189 19.798C16.44 19.6985 13.0386 19.4746 13.0386 16.3897C13.0386 12.658 17.9435 12.658 19.7675 12.658C22.9963 12.658 27.1865 13.6282 30.1689 14.5238C30.1689 14.5238 31.8449 15.1209 33.2498 15.718L33.3731 15.7428V5.54285L33.2006 5.49309C29.6759 4.24919 25.5844 3.05504 17.9682 3.05504C4.85548 3.05504 0.22168 10.7672 0.22168 17.3599C0.22168 21.1663 1.84844 30.1224 16.859 31.1672C18.1407 31.2419 21.5175 31.4409 21.5175 34.6502C21.5175 37.2872 18.7569 38.8546 14.0984 38.8546C8.99633 38.8546 4.06675 37.536 1.05971 36.2921V46.8155C5.54562 48.0097 10.6231 48.6068 16.5632 48.6068C29.3801 48.6068 35.1231 41.3175 35.1231 34.078C35.1231 25.8682 28.7146 20.5443 17.9189 19.798ZM88.2393 14.6731C77.4928 15.0214 72.0456 19.8975 72.0456 29.575V48.1092H83.778V32.9833C83.778 27.1868 84.5175 24.6989 91.3449 24.475V14.8224C90.1618 14.5985 88.2393 14.6731 88.2393 14.6731ZM56.69 15.1209C56.4435 15.7677 54.5703 21.0916 50.0597 26.5897V3.05504L38.0562 5.44334V48.0843H50.0597V34.8989C53.5351 40.1731 55.2604 48.0843 55.2604 48.0843H69.6301C68.2006 42.1136 61.9893 31.1175 61.9893 31.1175C67.5597 23.9775 70.0245 16.3648 70.4189 15.096H56.69V15.1209ZM100.588 11.9863C103.743 11.9863 106.331 9.39894 106.331 6.21455C106.331 3.03016 103.767 0.417969 100.588 0.417969C97.433 0.417969 94.8696 3.00529 94.8696 6.21455C94.8696 9.39894 97.433 11.9863 100.588 11.9863Z" fill="white"/>
</svg>
