<svg width="179" height="38" viewBox="0 0 179 38" fill="none" xmlns="http://www.w3.org/2000/svg">
<path d="M36.8116 23.5984C34.3155 33.7769 24.1753 39.9714 14.1624 37.4331C4.15358 34.8955 -1.93944 24.5858 0.5578 14.4079C3.0527 4.22819 13.1929 -1.96689 23.2029 0.570755C33.2152 3.1084 39.3077 13.4193 36.8116 23.5984Z" fill="#F7931A"/>
<path d="M26.924 16.2954C27.2961 13.7673 25.4027 12.4082 22.8138 11.5015L23.6536 8.07683L21.6031 7.55731L20.7855 10.8918C20.2465 10.7552 19.6928 10.6264 19.1427 10.4987L19.9661 7.14228L17.9168 6.62276L17.0764 10.0463C16.6302 9.94295 16.1922 9.84084 15.7671 9.73337L15.7694 9.72268L12.9416 9.00484L12.3962 11.2314C12.3962 11.2314 13.9175 11.5858 13.8854 11.6078C14.7158 11.8186 14.8659 12.3773 14.8408 12.8202L13.8842 16.7217C13.9414 16.7365 14.0156 16.7579 14.0974 16.7912C14.0291 16.7739 13.956 16.7549 13.8807 16.7365L12.5398 22.2019C12.4382 22.4584 12.1806 22.8432 11.6001 22.6971C11.6206 22.7274 10.1097 22.3189 10.1097 22.3189L9.0918 24.7051L11.7602 25.3814C12.2566 25.5079 12.743 25.6403 13.2219 25.765L12.3734 29.2288L14.4215 29.7484L15.2619 26.3213C15.8214 26.4757 16.3645 26.6182 16.896 26.7524L16.0585 30.1634L18.109 30.6829L18.9575 27.2256C22.454 27.8983 25.0832 27.6269 26.19 24.4118C27.0817 21.8231 26.1456 20.3299 24.3059 19.3561C25.6456 19.042 26.6548 18.1461 26.924 16.2954ZM22.2391 22.9744C21.6054 25.5631 17.3182 24.1636 15.9282 23.8127L17.0542 19.2237C18.4442 19.5764 22.9014 20.2746 22.2391 22.9744ZM22.8733 16.258C22.2952 18.6128 18.7268 17.4164 17.5693 17.1231L18.5902 12.961C19.7477 13.2543 23.4754 13.8017 22.8733 16.258Z" fill="white"/>
<path d="M54.7642 11.498C56.2797 11.498 57.589 11.774 58.6893 12.3161C59.7949 12.8636 60.7071 13.601 61.4388 14.5284C62.1607 15.4606 62.698 16.5501 63.0449 17.7987C63.3894 19.0509 63.5623 20.397 63.5623 21.838C63.5623 24.0514 63.1634 26.1426 62.3581 28.1138C61.5527 30.088 60.46 31.8003 59.0701 33.2609C57.6813 34.7198 56.0414 35.8698 54.1504 36.7195C52.2623 37.5697 50.2094 37.9948 48.0054 37.9948C47.7204 37.9948 47.2193 37.9865 46.5115 37.9717C45.8036 37.9568 44.9901 37.8826 44.0791 37.7573C43.1622 37.6273 42.1927 37.4349 41.1689 37.1772C40.1457 36.9243 39.1739 36.5698 38.2588 36.1198L46.442 1.16273L53.7713 0.00789833L50.8413 12.4129C51.4686 12.1256 52.1005 11.9029 52.7312 11.7408C53.3625 11.5811 54.04 11.498 54.7642 11.498ZM48.6163 32.0835C49.72 32.0835 50.7602 31.8075 51.7372 31.2654C52.7172 30.7227 53.5628 29.99 54.2713 29.0774C54.9797 28.1607 55.5403 27.1282 55.9491 25.9746C56.3579 24.8209 56.5647 23.6174 56.5647 22.3652C56.5647 20.8268 56.3118 19.6269 55.8078 18.7594C55.3038 17.8955 54.3711 17.4609 53.0168 17.4609C52.5729 17.4609 52.0012 17.547 51.2922 17.7008C50.5809 17.864 49.9443 18.2031 49.3737 18.7131L46.2539 31.887C46.442 31.9209 46.6084 31.9529 46.7503 31.9832C46.8893 32.0159 47.0429 32.039 47.1959 32.0551C47.3577 32.0735 47.5428 32.083 47.7665 32.083C47.9902 32.083 48.2699 32.0835 48.6163 32.0835Z" fill="white"/>
<path d="M71.1637 37.3257H64.1631L70.0751 12.0341H77.1235L71.1637 37.3257ZM74.5702 8.9526C73.5931 8.9526 72.7072 8.65692 71.9211 8.06437C71.1286 7.47538 70.7362 6.56874 70.7362 5.34682C70.7362 4.6747 70.8705 4.04414 71.1368 3.44921C71.4072 2.85547 71.7605 2.34427 72.2032 1.90965C72.6453 1.4786 73.1575 1.13422 73.7392 0.874755C74.3243 0.619446 74.9469 0.491798 75.6103 0.491798C76.5868 0.491798 77.4681 0.787483 78.2571 1.38004C79.0432 1.97556 79.4385 2.8822 79.4385 4.09758C79.4385 4.77207 79.3048 5.405 79.0362 5.99874C78.7693 6.59248 78.4159 7.10368 77.9732 7.5383C77.5347 7.96995 77.0178 8.31314 76.4373 8.57023C75.8515 8.82969 75.2313 8.9526 74.5702 8.9526Z" fill="white"/>
<path d="M83.2578 5.73275L90.5901 4.57792L88.7896 12.0329H96.6422L95.2242 17.8979H87.4189L85.3398 26.7446C85.1483 27.4821 85.0396 28.1708 85.0093 28.8108C84.9748 29.4539 85.0548 30.0061 85.2441 30.471C85.4321 30.937 85.7702 31.2963 86.2608 31.5504C86.7491 31.8087 87.4481 31.9387 88.365 31.9387C89.1201 31.9387 89.856 31.8656 90.5673 31.7208C91.2746 31.5783 91.9911 31.38 92.7165 31.1205L93.2386 36.6043C92.2925 36.957 91.2681 37.2604 90.1644 37.5157C89.0588 37.7746 87.75 37.8992 86.2375 37.8992C84.0626 37.8992 82.3765 37.5709 81.1752 36.9172C79.9757 36.2587 79.1277 35.3592 78.6202 34.2204C78.1197 33.0858 77.896 31.7778 77.9585 30.3041C78.0233 28.8269 78.2423 27.2743 78.6202 25.6391L83.2578 5.73275Z" fill="white"/>
<path d="M96.334 27.2261C96.334 25.0477 96.6809 22.9934 97.3741 21.0703C98.0662 19.1453 99.0631 17.4621 100.357 16.0175C101.646 14.5801 103.216 13.4413 105.064 12.6053C106.904 11.774 108.964 11.3549 111.234 11.3549C112.655 11.3549 113.924 11.4914 115.041 11.7652C116.162 12.0412 117.176 12.3981 118.094 12.8458L115.679 18.4269C115.049 18.1669 114.394 17.9377 113.717 17.7299C113.04 17.5179 112.213 17.4158 111.234 17.4158C108.898 17.4158 107.051 18.2345 105.676 19.8667C104.306 21.5001 103.617 23.6987 103.617 26.4567C103.617 28.0912 103.964 29.4129 104.66 30.424C105.352 31.4352 106.632 31.9381 108.49 31.9381C109.407 31.9381 110.291 31.8407 111.139 31.6507C111.993 31.4583 112.746 31.2161 113.411 30.9299L113.933 36.6512C113.048 37.0003 112.071 37.3156 111 37.5917C109.927 37.8583 108.649 37.9966 107.167 37.9966C105.212 37.9966 103.556 37.7057 102.202 37.1327C100.847 36.5509 99.7271 35.7784 98.8452 34.7999C97.9587 33.8191 97.3221 32.6737 96.9285 31.3592C96.5349 30.0458 96.334 28.666 96.334 27.2261Z" fill="white"/>
<path d="M127.433 37.9966C125.762 37.9966 124.311 37.7377 123.08 37.2253C121.852 36.7129 120.835 35.9939 120.031 35.0618C119.226 34.1343 118.623 33.0353 118.21 31.7689C117.797 30.503 117.599 29.1012 117.599 27.5652C117.599 25.6385 117.903 23.7124 118.518 21.7916C119.13 19.8667 120.038 18.1372 121.24 16.6C122.433 15.0604 123.904 13.8017 125.636 12.8202C127.366 11.8453 129.357 11.3549 131.592 11.3549C133.233 11.3549 134.676 11.6143 135.924 12.1267C137.167 12.6379 138.19 13.3629 138.999 14.2903C139.799 15.2225 140.407 16.3168 140.815 17.585C141.227 18.8485 141.43 20.2539 141.43 21.7911C141.43 23.7118 141.13 25.6379 140.535 27.5646C139.938 29.4818 139.054 31.2155 137.885 32.7563C136.72 34.2935 135.262 35.5516 133.511 36.5289C131.763 37.5062 129.735 37.9966 127.433 37.9966ZM130.932 17.4164C129.894 17.4164 128.976 17.7227 128.191 18.3278C127.402 18.9399 126.74 19.7094 126.206 20.6374C125.667 21.5696 125.267 22.5861 124.996 23.691C124.728 24.7984 124.597 25.8451 124.597 26.8396C124.597 28.4445 124.851 29.6943 125.352 30.5939C125.859 31.4886 126.771 31.9387 128.096 31.9387C129.138 31.9387 130.05 31.6347 130.841 31.0231C131.624 30.4157 132.287 29.6456 132.825 28.7158C133.361 27.7884 133.765 26.769 134.035 25.6623C134.3 24.5585 134.435 23.5058 134.435 22.513C134.435 20.9123 134.181 19.6595 133.676 18.7612C133.171 17.8664 132.256 17.4164 130.932 17.4164Z" fill="white"/>
<path d="M149.059 37.3257H142.053L147.965 12.0341H155.017L149.059 37.3257ZM152.46 8.9526C151.484 8.9526 150.599 8.65692 149.814 8.06437C149.025 7.47538 148.629 6.56874 148.629 5.34682C148.629 4.6747 148.765 4.04414 149.032 3.44921C149.299 2.85547 149.655 2.34427 150.097 1.90965C150.537 1.4786 151.054 1.13422 151.635 0.874755C152.216 0.619446 152.839 0.491798 153.5 0.491798C154.479 0.491798 155.363 0.787483 156.15 1.38004C156.938 1.97556 157.336 2.8822 157.336 4.09758C157.336 4.77207 157.194 5.405 156.93 5.99874C156.665 6.59248 156.31 7.10368 155.869 7.5383C155.425 7.96995 154.914 8.31314 154.333 8.57023C153.746 8.82969 153.125 8.9526 152.46 8.9526Z" fill="white"/>
<path d="M160.062 13.1842C160.594 13.0263 161.187 12.8363 161.832 12.6296C162.48 12.423 163.204 12.2307 164.012 12.0573C164.811 11.8786 165.714 11.7337 166.706 11.6215C167.698 11.5069 168.829 11.4511 170.085 11.4511C173.777 11.4511 176.322 12.5441 177.727 14.7238C179.131 16.9034 179.374 19.8863 178.463 23.6673L175.243 37.3233H168.196L171.317 23.9547C171.508 23.1199 171.657 22.3129 171.768 21.5245C171.879 20.7431 171.873 20.0544 171.742 19.4583C171.618 18.8693 171.325 18.3871 170.87 18.0137C170.408 17.6461 169.71 17.4615 168.763 17.4615C167.851 17.4615 166.922 17.5613 165.974 17.7536L161.386 37.3227H154.336L160.062 13.1842Z" fill="white"/>
</svg>
